#define im_width 128
#define im_height 64
static char im_bits[] = {
0xff,0xff,0xff,0xff,0xff,0xff,0xff,0xff,0xff,0xff,0xff,0xff,0xff,0xff,0xff,
0xff,0x01,0x00,0x00,0x00,0x00,0x00,0x00,0x00,0x00,0x00,0x00,0x00,0x00,0x00,
0x00,0x80,0x01,0x00,0x00,0x00,0x00,0x00,0x00,0x00,0x00,0x00,0x00,0x00,0x00,
0x00,0x00,0x80,0x01,0x00,0x00,0xc0,0xf3,0x33,0x06,0x30,0x06,0x00,0x00,0x00,
0x00,0x00,0x00,0x80,0x01,0x00,0x00,0x60,0x66,0x36,0x06,0x30,0x06,0x00,0x00,
0x00,0x00,0x00,0x00,0x80,0x01,0x00,0x00,0x30,0x64,0x36,0x06,0x30,0x06,0x00,
0x00,0x00,0x00,0x00,0x00,0x80,0x01,0x00,0x00,0x30,0x60,0x36,0x06,0x30,0xe6,
0xf3,0x70,0xf3,0x01,0x00,0x00,0x80,0x01,0x00,0x00,0x30,0xe0,0x33,0x06,0x30,
0x36,0x86,0x99,0x19,0x03,0x00,0x00,0x80,0x01,0x00,0x00,0x30,0x60,0x30,0x06,
0x30,0x66,0xf0,0x99,0xf9,0x03,0x00,0x00,0x80,0x01,0x00,0x00,0x30,0x60,0x30,
0x06,0x30,0xc6,0x99,0x99,0x19,0x00,0x00,0x00,0x80,0x01,0x00,0x00,0x30,0x64,
0x30,0x06,0x30,0x06,0x9b,0x99,0x19,0x00,0x00,0x00,0x80,0x01,0x00,0x00,0x60,
0x66,0x30,0x06,0x30,0x36,0x9e,0x99,0x19,0x03,0x00,0x00,0x80,0x01,0x00,0x00,
0xc0,0xf3,0xe0,0x03,0xe0,0xe3,0x73,0xf3,0xf1,0x01,0x00,0x00,0x80,0x01,0x00,
0x00,0x00,0x00,0x00,0x00,0x00,0x00,0x00,0x80,0x01,0x00,0x00,0x00,0x80,0x01,
0x00,0x00,0x00,0x00,0x00,0x00,0x00,0x00,0x00,0x98,0x01,0x00,0x00,0x00,0x80,
0x01,0x00,0x00,0x00,0x00,0x00,0x00,0x00,0x00,0x00,0xf0,0x00,0x00,0x00,0x00,
0x80,0x01,0x00,0x00,0x00,0x00,0x00,0x00,0x00,0x00,0x00,0x00,0x00,0x00,0x00,
0x00,0x80,0x01,0x00,0x00,0x00,0x00,0x00,0x00,0x00,0x00,0x00,0x00,0x00,0x00,
0x00,0x00,0x80,0xff,0xff,0xff,0xff,0xff,0xff,0xff,0xff,0xff,0xff,0xff,0xff,
0xff,0xff,0xff,0xff,0x01,0x00,0x00,0x00,0x00,0x00,0x00,0x00,0x00,0x00,0x00,
0x00,0x00,0x00,0x00,0x80,0x01,0x00,0x00,0x00,0xfc,0x1f,0x00,0x00,0x00,0x00,
0x00,0x00,0x00,0x00,0x00,0x80,0x01,0x00,0x00,0x00,0xfc,0x1f,0x00,0x00,0x00,
0x00,0x00,0x00,0x00,0x00,0x00,0x80,0x01,0x00,0x00,0x00,0xfc,0x1f,0x00,0x00,
0x00,0x00,0x00,0x00,0x00,0x00,0x00,0x80,0x01,0x00,0x00,0x00,0xfc,0x1f,0x00,
0x00,0x00,0x00,0x00,0x00,0x00,0x00,0x00,0x80,0x01,0x00,0x00,0x00,0xfc,0x1f,
0x00,0x00,0x00,0x00,0x00,0x00,0x00,0x00,0x00,0x80,0x01,0x00,0x00,0x00,0xfc,
0x1f,0x00,0x00,0x00,0x00,0x00,0x00,0x00,0x00,0x00,0x80,0x01,0x00,0x00,0x00,
0xfc,0x1f,0x00,0x00,0x00,0x00,0x00,0x00,0x00,0x00,0x00,0x80,0x01,0x00,0x00,
0x00,0xfc,0x1f,0x00,0x00,0x00,0x00,0x00,0x00,0x00,0x00,0x00,0x80,0x01,0x00,
0x00,0x00,0xfc,0x1f,0x00,0x00,0x00,0x00,0x00,0x00,0x00,0x00,0x00,0x80,0x01,
0x00,0x00,0x00,0xfc,0x1f,0x00,0x00,0x00,0x00,0x00,0x00,0x00,0x00,0x00,0x80,
0x01,0x00,0x00,0x00,0xfc,0x1f,0x00,0x00,0x00,0x00,0x00,0x00,0x00,0x00,0x00,
0x80,0x01,0x00,0x00,0x00,0xfc,0x1f,0x00,0x00,0x00,0x00,0x00,0x00,0x00,0x00,
0x00,0x80,0x01,0x00,0x00,0x00,0xfc,0x1f,0x00,0x00,0x00,0x00,0x00,0x00,0x00,
0x00,0x00,0x80,0x01,0x00,0x00,0x00,0xfc,0x1f,0x00,0x00,0x00,0x00,0x00,0x00,
0x00,0x00,0x00,0x80,0x01,0x00,0x00,0x00,0xfc,0x1f,0x00,0x00,0x00,0x00,0x00,
0x00,0x00,0x00,0x00,0x80,0x01,0x00,0x00,0x00,0xfc,0x1f,0x00,0x00,0x00,0x00,
0x00,0x00,0x00,0x00,0x00,0x80,0x01,0x00,0x00,0x00,0xfc,0x1f,0x00,0x00,0x00,
0x00,0x00,0x00,0x00,0x00,0x00,0x80,0x01,0x00,0x00,0x00,0xfc,0x1f,0x00,0x00,
0x00,0x00,0x00,0x00,0x00,0x00,0x00,0x80,0x01,0x00,0x00,0x00,0xfc,0x1f,0x00,
0x00,0x00,0x00,0x00,0x00,0x00,0x00,0x00,0x80,0x01,0x00,0x00,0x00,0xfc,0x1f,
0x00,0x00,0x00,0x00,0x00,0x00,0x00,0x00,0x00,0x80,0x01,0x00,0x00,0x00,0xfc,
0x1f,0x00,0x00,0x00,0x00,0x00,0x00,0x00,0x00,0x00,0x80,0x01,0x00,0x00,0x00,
0xfc,0x1f,0x00,0x00,0x00,0x00,0x00,0x00,0x00,0x00,0x00,0x80,0x01,0x00,0x00,
0x00,0xfc,0x1f,0x00,0x00,0x00,0x00,0x00,0x00,0x00,0x00,0x00,0x80,0x01,0x00,
0x00,0x00,0xfc,0x1f,0x00,0x00,0x00,0x00,0x00,0x00,0x00,0x00,0x00,0x80,0x01,
0x00,0x00,0x00,0xfc,0x1f,0x00,0x00,0x00,0x00,0x00,0x00,0x00,0x00,0x00,0x80,
0x01,0x00,0x00,0x00,0xfc,0x1f,0x00,0x00,0x00,0x00,0x00,0x00,0x00,0x00,0x00,
0x80,0x01,0x00,0x00,0x00,0xfc,0x1f,0x00,0x00,0x00,0x00,0x00,0x00,0x00,0x00,
0x00,0x80,0x01,0x00,0x00,0x00,0xfc,0x1f,0x00,0x00,0x00,0x00,0x00,0x00,0x00,
0x00,0x00,0x80,0x01,0x00,0x00,0x00,0xfc,0x1f,0x00,0x00,0x00,0x00,0x00,0x00,
0x00,0x00,0x00,0x80,0x01,0x00,0x00,0x00,0xfc,0x1f,0x00,0x00,0x00,0x00,0x00,
0x00,0x00,0x00,0x00,0x80,0x01,0x00,0x00,0x00,0xfc,0x1f,0x00,0x00,0x00,0x00,
0x00,0x00,0x00,0x00,0x00,0x80,0x01,0x00,0x00,0x00,0xfc,0x1f,0x00,0x00,0x00,
0x00,0x00,0x00,0x00,0x00,0x00,0x80,0x01,0x00,0x00,0x00,0xfc,0x1f,0x00,0x00,
0x00,0x00,0x00,0x00,0x00,0x00,0x00,0x80,0x01,0x00,0x00,0x00,0xfc,0x1f,0x00,
0x00,0x00,0x00,0x00,0x00,0x00,0x00,0x00,0x80,0x01,0x00,0x00,0x00,0xfc,0x1f,
0x00,0x00,0x00,0x00,0x00,0x00,0x00,0x00,0x00,0x80,0x01,0x00,0x00,0x00,0xfc,
0x1f,0x00,0x00,0x00,0x00,0x00,0x00,0x00,0x00,0x00,0x80,0x01,0x00,0x00,0x00,
0xfc,0x1f,0x00,0x00,0x00,0x00,0x00,0x00,0x00,0x00,0x00,0x80,0x01,0x00,0x00,
0x00,0xfc,0x1f,0x00,0x00,0x00,0x00,0x00,0x00,0x00,0x00,0x00,0x80,0x01,0x00,
0xfc,0x1f,0xfc,0x1f,0x00,0x00,0x00,0x00,0x00,0x00,0x00,0x00,0xfc,0x9f,0x01,
0x00,0xfc,0x1f,0xfc,0x1f,0x00,0x00,0x00,0x00,0x00,0x00,0x00,0x00,0xfc,0x9f,
0x01,0x00,0xfc,0x1f,0xfc,0x1f,0x00,0x00,0x00,0x00,0x00,0x00,0x00,0x00,0xfc,
0x9f,0x01,0x00,0xfc,0x1f,0xfc,0x1f,0x00,0x00,0xfc,0x1f,0x00,0x00,0xfc,0x1f,
0xfc,0x9f,0x01,0x00,0xfc,0x1f,0xfc,0x1f,0x00,0x00,0xfc,0x1f,0x00,0x00,0xfc,
0x1f,0xfc,0x9f,0xff,0xff,0xff,0xff,0xff,0xff,0xff,0xff,0xff,0xff,0xff,0xff,
0xff,0xff,0xff,0xff
};
